<svg width="50" height="50" viewBox="0 0 50 50" fill="none" xmlns="http://www.w3.org/2000/svg">
<g clip-path="url(#clip0_112_491)">
<path d="M34.5626 15.7915L20.8334 29.5207L13.3542 22.0623L10.4167 24.9998L20.8334 35.4165L37.5001 18.7498L34.5626 15.7915ZM25.0001 4.1665C13.5001 4.1665 4.16675 13.4998 4.16675 24.9998C4.16675 36.4998 13.5001 45.8332 25.0001 45.8332C36.5001 45.8332 45.8334 36.4998 45.8334 24.9998C45.8334 13.4998 36.5001 4.1665 25.0001 4.1665ZM25.0001 41.6665C15.7917 41.6665 8.33342 34.2082 8.33342 24.9998C8.33342 15.7915 15.7917 8.33317 25.0001 8.33317C34.2084 8.33317 41.6668 15.7915 41.6668 24.9998C41.6668 34.2082 34.2084 41.6665 25.0001 41.6665Z" fill="white"/>
</g>
<defs>
<clipPath id="clip0_112_491">
<rect width="50" height="50" fill="white"/>
</clipPath>
</defs>
</svg>
